<svg xmlns="http://www.w3.org/2000/svg" viewBox="0 0 204.28 204.28"><g id="Capa_2" data-name="Capa 2"><g id="Capa_1-2" data-name="Capa 1"><circle cx="102.14" cy="102.14" r="102.14" transform="translate(-42.31 102.14) rotate(-45)" style="fill:#f4554f"/><path d="M30.49,70.28l.46-.9c-.14.27.58-1.24,2.16-4.51l.59-1.23a7.52,7.52,0,0,1,2.51-3.18A3.53,3.53,0,0,1,40,60.25a4.52,4.52,0,0,1,2.45,4.53,12.39,12.39,0,0,1-1.1,4.06,10.2,10.2,0,0,1,2-2.25,4.32,4.32,0,0,1,2.24-.81,4.55,4.55,0,0,1,2.35.48A5.36,5.36,0,0,1,49.87,68a6.1,6.1,0,0,1,1.06,2.43,6.34,6.34,0,0,1-.07,2.71,17.28,17.28,0,0,1-1.43,3.51l-3.69,7.26L45,83.17l.55-1.41L32.22,69.36l-1,1.6Zm9,1.15L40,70.5a6.21,6.21,0,0,0,.83-3.86,4.46,4.46,0,0,0-2.57-3.3Q35.61,62,34.36,64.5l-.15.29-.54,1.26Zm.73.7,7,6.46,1.32-2.42A4.17,4.17,0,0,0,49,72.72a6.63,6.63,0,0,0-3.36-3.57c-2.05-1-3.68-.34-4.92,2.08Z" style="fill:#fff"/><path d="M48.83,53.05a4.68,4.68,0,0,1,3.62-1.71,6,6,0,0,1,4.06,1.72,8.56,8.56,0,0,1,2.87,5.75,7.18,7.18,0,0,1-1.65,5.8,4.73,4.73,0,0,1-3.57,1.7,5.58,5.58,0,0,1-3.91-1.58,9.21,9.21,0,0,1-3-5.46A7.09,7.09,0,0,1,48.83,53.05Zm.73,1q-1.43,1.59.45,4.88a17.78,17.78,0,0,0,3.48,4.52c1.38,1.24,2.54,1.34,3.45.3s.75-2.85-.68-5.29a18.09,18.09,0,0,0-3.12-4.16Q51,52.37,49.56,54Z" style="fill:#fff"/><path d="M61.46,42.16a4.71,4.71,0,0,1,3.91-.85,6,6,0,0,1,3.56,2.6,8.62,8.62,0,0,1,1.5,6.25,7.17,7.17,0,0,1-2.93,5.28,4.74,4.74,0,0,1-3.86.84,5.6,5.6,0,0,1-3.45-2.42,9.2,9.2,0,0,1-1.67-6A7.05,7.05,0,0,1,61.46,42.16Zm.49,1.1c-1.16.82-1.39,2.44-.67,4.86a18.08,18.08,0,0,0,2.36,5.19q1.6,2.27,3.3,1.07t.53-5.3a17.75,17.75,0,0,0-2.09-4.76Q63.73,42,62,43.26Z" style="fill:#fff"/><path d="M74.56,32.5l1,9.28a35.86,35.86,0,0,1,2.29-6,5.54,5.54,0,0,1,2.56-2.9,2,2,0,0,1,1.42-.09,1.48,1.48,0,0,1,.93.9,1.66,1.66,0,0,1,0,1.31,1.72,1.72,0,0,1-1,.94,3.3,3.3,0,0,1-1.88-.07.77.77,0,0,0-.45,0Q79,36,77.91,38.46a1.69,1.69,0,0,1,1.34.54,13.84,13.84,0,0,1,1.57,2.69l1,2c.45.9.89,1.27,1.31,1.1s.59-.59.89-1.42l.82,1.14a4.25,4.25,0,0,1-2.2,2.69,1.9,1.9,0,0,1-2.4-.63,27.06,27.06,0,0,1-2.31-4.43c-.32-.72-.6-1-.86-.93s-.4.46-.65,1.14A7.15,7.15,0,0,0,76,44.18a13.75,13.75,0,0,0,.65,5.14l-3.24,1.31a46,46,0,0,0-.37-6L71.84,34a10.48,10.48,0,0,0-.38-2.21.69.69,0,0,0-1-.47,8.25,8.25,0,0,0-.8.49l-.14-1.22L74,26.89c0,.57.08,1.34.18,2.32C74.3,30,74.42,31,74.56,32.5Z" style="fill:#fff"/><path d="M106.4,30l-.24.75c-.15.5-.38,1.34-.66,2.52l-2.06,8.41a12.7,12.7,0,0,1-2.58,5.68,7.19,7.19,0,0,1-5.15,2.32A5.61,5.61,0,0,1,93,49.27a1.76,1.76,0,0,1-1-1.53,1.57,1.57,0,0,1,.44-1.18A1.67,1.67,0,0,1,93.54,46c1.14,0,1.87.63,2.19,2,.09.37.3.55.61.53a2.83,2.83,0,0,0,2-1.12,10.57,10.57,0,0,0,1.9-4.31l.38-1.5a4.93,4.93,0,0,1-3.9,2.5,2.72,2.72,0,0,1-2.12-.79,3.06,3.06,0,0,1-.9-2.17,9.48,9.48,0,0,1,.54-2.75l.91-3.09a10.2,10.2,0,0,0,.47-2.09c0-.42-.18-.62-.5-.6a4,4,0,0,0-1,.33l-.37-1,4.56-2.23a4.56,4.56,0,0,1,.49,1.85,8.9,8.9,0,0,1-.48,2.62l-1.06,3.69a15.31,15.31,0,0,0-.66,2.79A1.59,1.59,0,0,0,97,41.76a1.14,1.14,0,0,0,.92.4,3.15,3.15,0,0,0,2.21-1.58,13.18,13.18,0,0,0,1.72-4.43l.91-3.77a10.83,10.83,0,0,0,.29-2.21Z" style="fill:#fff"/><path d="M116.73,31.15a4.72,4.72,0,0,1,3.34,2.22,6,6,0,0,1,.62,4.36,8.65,8.65,0,0,1-3.43,5.43,7.14,7.14,0,0,1-5.82,1.58,4.69,4.69,0,0,1-3.3-2.18,5.62,5.62,0,0,1-.68-4.16A9.22,9.22,0,0,1,110.6,33,7.07,7.07,0,0,1,116.73,31.15Zm-.45,1.12c-1.39-.26-2.71.71-3.94,2.91a17.61,17.61,0,0,0-2.07,5.31c-.34,1.83.17,2.86,1.53,3.12s2.82-.84,4.17-3.32a18.09,18.09,0,0,0,2-4.82C118.27,33.6,117.72,32.54,116.28,32.27Z" style="fill:#fff"/><path d="M132.87,48.12l-.19,1.37q-2.49,1.36-4,.68a1.73,1.73,0,0,1-1-1.12,2.41,2.41,0,0,1,.18-1.68c.12-.27.23-.48.32-.64a11.07,11.07,0,0,1-3.08,1.2,4,4,0,0,1-2.34-.3,2.81,2.81,0,0,1-1.56-1.71,2.88,2.88,0,0,1,.14-2.32A16.46,16.46,0,0,1,124,40.08l1.78-1.9a4.14,4.14,0,0,0,.76-1c.15-.33,0-.57-.32-.73a5.5,5.5,0,0,0-1.07-.15l.1-1,5,.05a3.8,3.8,0,0,1-.28,2,15,15,0,0,1-2,2.52l-2.71,3a6.52,6.52,0,0,0-1.06,1.44,1.55,1.55,0,0,0-.1,1.09,1.09,1.09,0,0,0,.62.73c.83.37,1.9.16,3.23-.64a13.23,13.23,0,0,0,3-2.86l1.81-2.17a14.91,14.91,0,0,0,1.79-2.58l3.14,1.39a38.9,38.9,0,0,0-2.74,3l-3,3.56a10.41,10.41,0,0,0-1.41,1.94c-.19.43-.13.72.2.86S131.87,48.67,132.87,48.12Z" style="fill:#fff"/><path d="M139.32,43.48l4.78-.87a3.42,3.42,0,0,1-.4,3.4c-.12.18-.42.54-.88,1.08,3-1.55,5-2,6-1.21a1.13,1.13,0,0,1,.26,1.79,2.25,2.25,0,0,1-1.48.93,2.15,2.15,0,0,1-1.68-.39,1.54,1.54,0,0,1-.46-.46,1.14,1.14,0,0,0-.22-.28c-.16-.12-.77.05-1.85.49a17.7,17.7,0,0,0-2.7,1.38,34.12,34.12,0,0,0-5.38,4.56l-2.82-2a28.51,28.51,0,0,0,3.12-2.21L139,47a10.89,10.89,0,0,0,1.66-1.5c.35-.48.39-.82.13-1a1.8,1.8,0,0,0-1.09-.05l-.43.05Z" style="fill:#fff"/><path d="M158.48,59.9l-7.91,3.37a3.14,3.14,0,0,0-.78.44c-.48.39-.57.75-.29,1.11a4.34,4.34,0,0,0,2.52.7l-.85,1c-2,0-3.4-.48-4.26-1.54a2.34,2.34,0,0,1-.57-1.69,2.22,2.22,0,0,1,.89-1.54,13.25,13.25,0,0,1,2.56-1.27l6.83-2.91-1.18-1.45,1.46-.6L158.07,57,162,55.32,165.32,57l-5.38,2.3,1.56,1.93-1.45.61Z" style="fill:#fff"/><path d="M165.41,74.34l-6.82,1.52a5.77,5.77,0,0,0-1.11.33c-.45.25-.58.54-.39.89.09.17.4.33.9.49l.41.11-.9.83a4.22,4.22,0,0,1-3-1.82c-.61-1.13-.3-2,.95-2.71a7.17,7.17,0,0,1,.74-.33c-2.35-.23-3.9-1-4.63-2.38a3,3,0,0,1-.21-2.61,4.31,4.31,0,0,1,2.1-2.15,9,9,0,0,1,3.66-1,12.83,12.83,0,0,1,4.25.41,9.14,9.14,0,0,1,6,4.49,4.33,4.33,0,0,1,.61,2.4,1.86,1.86,0,0,1-1,1.57A1.73,1.73,0,0,1,165.41,74.34Zm-4.63-1.89,3.09-.7a5.83,5.83,0,0,0,1.37-.45,1,1,0,0,0,.4-1.56,3.81,3.81,0,0,0-2.07-1.59,7.44,7.44,0,0,0-3.26-.47,11,11,0,0,0-4.61,1.19,3.44,3.44,0,0,0-1.4,1.28,1.35,1.35,0,0,0-.12,1.33c.42.76,1.37,1.22,2.87,1.37A12,12,0,0,0,160.78,72.45Z" style="fill:#fff"/><path d="M174.33,82.37h-4.24a4.6,4.6,0,0,1,2.58,2.75,3.61,3.61,0,0,1,0,2.35A4.52,4.52,0,0,1,169.4,90a10.16,10.16,0,0,1-6.26-.48c-3.07-1.11-4.93-2.86-5.61-5.26a4.1,4.1,0,0,1,.09-2.87,2.87,2.87,0,0,1,2-1.61,12.89,12.89,0,0,1,3.31-.29l10.91.07a7.85,7.85,0,0,0,1.73-.09c.48-.13.63-.5.46-1.11,0-.11-.14-.36-.31-.74h1.15l3.2,5a24.47,24.47,0,0,0-2.5-.16h-1.78Zm-6.13,0-7,0a5.42,5.42,0,0,0-1.41.15,1.69,1.69,0,0,0-1,.74,1.48,1.48,0,0,0-.14,1.19q.65,2.28,4.83,2.73a12.57,12.57,0,0,0,4.6-.18,3.67,3.67,0,0,0,1.85-1.06,1.59,1.59,0,0,0,.37-1.54C170.08,83.66,169.39,83,168.2,82.34Z" style="fill:#fff"/><path d="M163.61,97.93l-1.23.49A5.52,5.52,0,0,1,160.67,97a3.47,3.47,0,0,1-.8-1.75,2,2,0,0,1,.44-1.58,2.29,2.29,0,0,1,1.55-.74,15.74,15.74,0,0,1,3.28.37l11.66,2a7.56,7.56,0,0,0,1.6.19c.53-.05.76-.37.7-.94a6.43,6.43,0,0,0-.26-1l1.16.21,2.55,5.56c-.73-.2-2.52-.54-5.35-1l-11.74-2.07a16.14,16.14,0,0,0-2.63-.35c-.47,0-.69.23-.66.55S162.68,97.24,163.61,97.93Z" style="fill:#fff"/><path d="M165.72,105l-.61-1.78a3,3,0,0,0-1.81.46,2.41,2.41,0,0,0-1.11,1.9c-.06,1.18.66,2.58,2.17,4.18l-1.41.31a9,9,0,0,1-2-2.83,6.5,6.5,0,0,1-.65-3.07,4.46,4.46,0,0,1,1.53-3.23,4.67,4.67,0,0,1,3.46-1.12,9.61,9.61,0,0,1,6.37,3.06c1.92,1.92,2.83,3.92,2.71,6a3.76,3.76,0,0,1-.94,2.47,2.61,2.61,0,0,1-2.15.83,4.42,4.42,0,0,1-3.66-2.57A31.88,31.88,0,0,1,165.72,105Zm.64-1.83.65,1.64a12.28,12.28,0,0,0,1.53,2.93,3.72,3.72,0,0,0,2.82,1.61,1.59,1.59,0,0,0,1.14-.35,1.4,1.4,0,0,0,.51-1c.05-1-.58-2-1.92-3A10.19,10.19,0,0,0,166.36,103.15Z" style="fill:#fff"/><path d="M168.53,123.42l1.75,4.56a3.68,3.68,0,0,1-3.4.51,8.19,8.19,0,0,1-.94-.53q2.44,3.62,1.32,6.26a2.56,2.56,0,0,1-1.51,1.48,2.81,2.81,0,0,1-2.18-.09,7.38,7.38,0,0,1-1.9-1.27l-3.81-3.3a5.38,5.38,0,0,0-1.18-.86q-.6-.26-.78.18c-.13.29,0,.91.48,1.88L155,132c-.86-1.61-1.06-2.94-.62-4a1.82,1.82,0,0,1,1.14-1.06,2.29,2.29,0,0,1,1.68.11,12.89,12.89,0,0,1,2.8,2l3,2.6a7.17,7.17,0,0,0,1.24,1,1.26,1.26,0,0,0,1.71-.69,3.35,3.35,0,0,0-.35-2.72,8.07,8.07,0,0,0-2.35-2.94L160.35,124a24,24,0,0,0-2.95-2.14l1.4-3.27a11.52,11.52,0,0,0,1.08,1.24c.59.58,1.54,1.39,2.85,2.45l2.4,1.92a8.33,8.33,0,0,0,1.64,1.13c.45.19.75.12.89-.2a2,2,0,0,0-.27-1.47Z" style="fill:#fff"/><path d="M159.23,146.82a4.75,4.75,0,0,1-3.48,2,6.06,6.06,0,0,1-4.18-1.4,8.64,8.64,0,0,1-3.33-5.5,7.18,7.18,0,0,1,1.19-5.91,4.67,4.67,0,0,1,3.42-2,5.65,5.65,0,0,1,4,1.25,9.24,9.24,0,0,1,3.41,5.22A7.1,7.1,0,0,1,159.23,146.82Zm-.81-.9q1.29-1.71-.84-4.83a18.08,18.08,0,0,0-3.82-4.23c-1.49-1.12-2.64-1.13-3.48,0s-.51,2.9,1.11,5.21a17.9,17.9,0,0,0,3.44,3.9Q157.1,147.66,158.42,145.92Z" style="fill:#fff"/><path d="M144.73,160.07,142,162.14a21.82,21.82,0,0,0-1.27-4.12l-1.42-3.58a10.44,10.44,0,0,0-1-2,2.14,2.14,0,0,0-1.13-.81,1.17,1.17,0,0,0-1.12.14c-.85.64-1.19,1.93-1,3.86a15.37,15.37,0,0,0,.7,3.28,8.49,8.49,0,0,0,1.11,2.52.84.84,0,0,0,.4.33,4.65,4.65,0,0,0,1,.12,2,2,0,0,1,1.53.85,1.83,1.83,0,0,1,.43,1.29,1.5,1.5,0,0,1-.63,1.09,1.58,1.58,0,0,1-1.45.28,2.84,2.84,0,0,1-1.48-1.11,13.41,13.41,0,0,1-1.79-3.7,18.56,18.56,0,0,1-1-4.47c-.22-3.2.48-5.43,2.12-6.67a2.6,2.6,0,0,1,2.6-.45,4.63,4.63,0,0,1,1.63,1.33q-.41-3.78,1.74-5.41a3.17,3.17,0,0,1,2.32-.71,2.87,2.87,0,0,1,2,1.2,11.12,11.12,0,0,1,1.21,2.77l1.26,3.76a5.31,5.31,0,0,0,.56,1.28c.23.3.47.35.74.15a2.61,2.61,0,0,0,.47-.62,2.71,2.71,0,0,1,.22-.39l.82.69-2.63,4.67a4.44,4.44,0,0,1-1.49-1.18,6.81,6.81,0,0,1-.81-1.8l-1.34-4a18.4,18.4,0,0,0-1.25-3.21,1.49,1.49,0,0,0-.87-.59,1.06,1.06,0,0,0-.89.18,3.5,3.5,0,0,0-1.06,2.92,14.11,14.11,0,0,0,1.16,4.7l.87,2.28A24.51,24.51,0,0,0,144.73,160.07Z" style="fill:#fff"/><path d="M129.14,158.08a2.05,2.05,0,0,1-1.51.11,1.72,1.72,0,0,1-1.07-1,1.81,1.81,0,0,1,0-1.51,2.17,2.17,0,0,1,2.6-1.23,1.77,1.77,0,0,1,1.07,1,1.88,1.88,0,0,1,.05,1.52A2.09,2.09,0,0,1,129.14,158.08Zm-.61,2.88,1.15-.53a55.68,55.68,0,0,0,1.14,5.73c.33,1.19,1,3,1.88,5.26a3.55,3.55,0,0,1,.22,2.21,2,2,0,0,1-1.18,1.42,1.66,1.66,0,0,1-2.46-1,3.85,3.85,0,0,1-.35-1.43c0-.41,0-1.48.13-3.22A42.83,42.83,0,0,0,128.53,161Z" style="fill:#fff"/></g></g></svg>