<svg xmlns="http://www.w3.org/2000/svg" viewBox="0 0 29.09 29.23"><g id="Capa_2" data-name="Capa 2"><g id="Footer"><path d="M29.09,14.92C29,17,29,19.13,28.9,21.24A8.11,8.11,0,0,1,26.35,27a7.74,7.74,0,0,1-4.58,2c-1.36.14-2.74.19-4.11.2-2.55,0-5.1,0-7.66,0a19.93,19.93,0,0,1-3.71-.35A7.51,7.51,0,0,1,.22,22C.06,20.55,0,19.11,0,17.68Q0,13.86,0,10A14.88,14.88,0,0,1,.5,5.84,7.35,7.35,0,0,1,6.75.31,31.85,31.85,0,0,1,11.44,0C14,0,16.5,0,19,0a14.78,14.78,0,0,1,4.34.5,7.36,7.36,0,0,1,5.37,6.25A40.93,40.93,0,0,1,29,11.62c0,1.1,0,2.2,0,3.3Zm-26.5-.31h.05c0,1.18,0,2.36,0,3.54s.07,2.35.19,3.52a4.94,4.94,0,0,0,4.34,4.64,28.31,28.31,0,0,0,3.8.25q3.54,0,7.09,0c1.15,0,2.32-.06,3.47-.18A4.94,4.94,0,0,0,26.15,22a28.5,28.5,0,0,0,.24-3.82c0-2.62,0-5.25,0-7.87a20.16,20.16,0,0,0-.23-3.11,4.77,4.77,0,0,0-3.57-4.1,7.87,7.87,0,0,0-2-.32q-4.87-.09-9.76-.09a30.27,30.27,0,0,0-3.3.18,4.94,4.94,0,0,0-4,2.51,6.67,6.67,0,0,0-.79,3.1C2.67,10.51,2.63,12.56,2.59,14.61Z" style="fill:#fff"/><path d="M14.52,22.12A7.51,7.51,0,1,1,22,14.57,7.49,7.49,0,0,1,14.52,22.12Zm0-2.65a4.86,4.86,0,1,0-4.8-4.91A4.83,4.83,0,0,0,14.5,19.47Z" style="fill:#fff"/><path d="M22.26,8.57A1.76,1.76,0,1,1,24,6.83,1.73,1.73,0,0,1,22.26,8.57Z" style="fill:#fff"/></g></g></svg>