<svg xmlns="http://www.w3.org/2000/svg" viewBox="0 0 775.76 197.34"><g id="Capa_2" data-name="Capa 2"><g id="Capa_1-2" data-name="Capa 1"><path d="M29,97.78l-16,12H0L32.46,14.2l16-11.94h4L21.24,94.07h5L57.49,2.26h4Z" style="fill:#fff"/><path d="M57.73,94.07H97.4l-1.26,3.71L80.67,109.33H36.62L69,14.2,85,2.26h4Zm11.82-8.23H100.2l-1.26,3.72H64.3L94,2.26h4Z" style="fill:#fff"/><path d="M189,1.33l20.55,50.41,40.05-37,23.26-13.4h3.85L244,97.78l-16,12H215.21l20.06-59L195,88.36h-2.65l-13.2-31.84L165.26,97.78l-16,12H136.53l32.78-96.46,16-11.94ZM157.77,94.07h4.78l24.3-71.51,20,50.15H207l53.75-50L236.45,94.07h4.78l29.22-86h-.4L209.71,64.61,187.39,8.09H187Z" style="fill:#fff"/><path d="M342.35,94.33c-15.29,11.41-29.88,17.25-45.14,17.25-24.55,0-41.93-19.9-32.1-48.82,5.81-17.12,18.07-32.11,35.85-45.38C315.36,6.63,330.49,0,346.28,0,373.87,0,388.46,21.89,379,49.75,374.26,63.69,365.1,77.35,342.35,94.33Zm-29,1.86c25.34,0,52.77-20.56,61.47-46.17,8.84-26-4.35-46.17-30.09-46.17-25.34,0-52.76,20.56-61.47,46.17C274.4,76,287.58,96.19,313.32,96.19ZM343.08,8.62C366,8.62,377.37,26.4,369.35,50s-31.45,41.4-54.41,41.4S280.65,73.64,288.67,50,320.12,8.62,343.08,8.62ZM328.35,22.69c-8.76,0-15.94,2.39-21.63,6.63s-10.55,11.15-13.66,20.3c-7.31,21.5,1.74,37.82,23.63,37.82a32.49,32.49,0,0,0,20.44-6.64c5.69-4.24,10.15-10.75,13-19.1C358.15,38.08,348.52,22.69,328.35,22.69Z" style="fill:#fff"/><path d="M430,110.79l-20.3-55.06L395.53,97.78l-16,12h-12.6L399.8,13l16-11.94h4.77l18,49.23L450.74,14.2l16-11.94h3.85l-26,76.42L418.37,6.77h-.67L388,94.07h4.9L417.7,21.23l26.33,72h.53l30.94-91h3.84L446.47,99l-15.82,11.81Z" style="fill:#fff"/><path d="M478,94.07h39.54l-1.26,3.71L500.8,109.33H456.88L489.21,14.2l16-11.94h43.26L547.21,6H507.93Zm41.08-4.51h-34.5L499.36,46h33.57l-1.27,3.71L516.2,61.3H498.15l-8.34,24.54h30.52Zm15.39-48H500.89l10.55-31h34.23l-1.26,3.72L528.94,25.74h-18.7l-4.11,12.07h29.59Z" style="fill:#fff"/><path d="M545.92,94.07H585.6l-1.27,3.71-15.46,11.55h-44L557.15,14.2l16-11.94h4Zm11.82-8.23h30.65l-1.26,3.72H552.5l29.67-87.3h4Z" style="fill:#fff"/><path d="M608.68,94.07h39.67l-1.26,3.71-15.47,11.55h-44L619.9,14.2l16-11.94h4Zm11.82-8.23h30.65l-1.26,3.72H615.26l29.67-87.3h4Z" style="fill:#fff"/><path d="M736.23,94.33c-15.29,11.41-29.88,17.25-45.14,17.25-24.54,0-41.93-19.9-32.1-48.82,5.82-17.12,18.08-32.11,35.86-45.38C709.25,6.63,724.37,0,740.16,0c27.6,0,42.19,21.89,32.72,49.75C768.14,63.69,759,77.35,736.23,94.33Zm-29,1.86c25.34,0,52.76-20.56,61.46-46.17,8.84-26-4.34-46.17-30.08-46.17-25.35,0-52.77,20.56-61.47,46.17C668.28,76,681.46,96.19,707.21,96.19ZM737,8.62c23,0,34.3,17.78,26.27,41.4s-31.45,41.4-54.4,41.4S674.53,73.64,682.56,50,714,8.62,737,8.62ZM722.23,22.69c-8.75,0-15.93,2.39-21.62,6.63s-10.56,11.15-13.67,20.3c-7.3,21.5,1.75,37.82,23.64,37.82A32.46,32.46,0,0,0,731,80.8c5.69-4.24,10.15-10.75,13-19.1C752,38.08,742.4,22.69,722.23,22.69Z" style="fill:#fff"/><path d="M324.43,163.9a17.7,17.7,0,0,1,8.36,2.08l-.69,3.56a14.16,14.16,0,0,0-7.76-2.31,13.39,13.39,0,0,0,0,26.78,14.55,14.55,0,0,0,8.17-2.59l.69,3.56a17.67,17.67,0,0,1-8.86,2.35,16.72,16.72,0,1,1,.09-33.43Z" style="fill:#fff"/><path d="M365.25,185.61H353l-4.75,11.17h-3.74l14.64-33.47,14.63,33.47H370Zm-1.39-3.23-4.75-11.09-4.76,11.09Z" style="fill:#fff"/><path d="M390.59,179.52H401.3v3.32H390.59v13.94h-3.51V164.46H403.2l.64,3.32H390.59Z" style="fill:#fff"/><path d="M422.26,179.52H433v3.33H422.26v13.95h-3.51V164.47h16.12l.65,3.32H422.26Z" style="fill:#fff"/><path d="M468.57,193.47l-.65,3.32h-17.5V164.47h16.85l.65,3.33h-14v10.66h11.59v3.33H453.93v11.68Zm-16.39-37.26,1.48-3.1,10.71,5.17-1.25,2.77Z" style="fill:#fff"/></g></g></svg>